<svg width="164" height="40" viewBox="0 0 164 40" fill="none" xmlns="http://www.w3.org/2000/svg">
<g clip-path="url(#clip0_1481_3304)">
<path opacity="0.8" d="M27.2565 29.0928L13.5 23.0489V6L27.2565 12.0439V25.2067V29.0928Z" fill="#3988FF"/>
<path d="M24.3537 20.0714L14.0543 22.6077L5.80078 19.4727L18.0385 17.5352L24.3537 20.0714Z" fill="#003E89"/>
<path opacity="0.5" d="M20.3581 32.4435L6.60156 26.3997V9.35156L20.3581 15.3946V28.5491V32.4435Z" fill="#0053CC"/>
<path opacity="0.5" d="M18.7244 33.3928L4.96875 27.3497V10.3008L18.7244 16.3447V29.4983V33.3928Z" fill="#97C1FF"/>
<path opacity="0.5" d="M17.1658 34.4561L3.41016 28.4122V11.3633L17.1658 17.4072V30.5608V34.4561Z" fill="#3988FF"/>
</g>
<path d="M120.664 15.2123H117.961V11.5195H115.731V21.9247H117.961V17.1302H120.664V15.2123ZM107.172 17.8442L112.713 21.2718L113.906 19.7621L108.005 16.1713C108.276 15.396 108.456 14.5799 108.478 13.7026H113.343V11.9684H101.068V13.7026H106.248C106.023 16.8853 104.041 19.15 100.82 19.5784V21.4146C103.613 21.1494 105.843 19.8233 107.172 17.8442ZM101.699 24.6382H115.708V28.9431H117.961V22.8836H101.699V24.6382Z" fill="#434343"/>
<path d="M138.095 11.5195V15.0083H134.131C133.59 13.0293 131.45 11.7236 128.342 11.7236C124.693 11.7236 122.396 13.4985 122.396 16.0284C122.396 18.5583 124.693 20.3333 128.342 20.3333C131.54 20.3333 133.703 18.946 134.176 16.8853H138.095V20.4557H140.325V11.5195H138.095ZM128.342 18.6603C126.135 18.6603 124.626 17.6606 124.626 16.0284C124.626 14.3962 126.135 13.3965 128.342 13.3965C130.549 13.3965 132.036 14.3962 132.036 16.0284C132.036 17.6606 130.549 18.6603 128.342 18.6603ZM138.117 23.2508H126.36V21.4146H124.175V28.7187H140.325V21.4146H138.117V23.2508ZM126.36 27.0661V24.8626H138.117V27.0661H126.36Z" fill="#434343"/>
<path d="M161.292 14.8451V11.5195H159.062V21.1494H161.292V16.7629H163.995V14.8451H161.292ZM150.616 17.2526L156.179 20.4149L157.283 18.9052L151.427 15.6408C151.629 15.0287 151.765 14.3759 151.81 13.7026H156.675V11.9684H144.399V13.7026H149.58C149.287 16.4773 147.327 18.5991 144.152 18.9868V20.8026C147.035 20.5373 149.31 19.1908 150.616 17.2526ZM153.341 21.7207C148.746 21.7207 145.098 22.7204 145.098 25.3319C145.098 27.9434 148.746 28.9431 153.341 28.9431C157.959 28.9431 161.585 27.9434 161.585 25.3319C161.585 22.7204 157.959 21.7207 153.341 21.7207ZM153.341 27.2701C150.075 27.2701 147.485 26.6784 147.485 25.3319C147.485 24.0057 150.075 23.3937 153.341 23.3937C156.63 23.3937 159.197 24.0057 159.197 25.3319C159.197 26.6784 156.63 27.2701 153.341 27.2701Z" fill="#434343"/>
<path d="M47.647 26.2092V22.496C52.2418 22.2103 55.1923 20.1497 55.1923 17.1914C55.1923 13.9678 51.7462 11.8256 46.5208 11.8256C41.2953 11.8256 37.8492 13.9678 37.8492 17.1914C37.8492 20.1497 40.7998 22.2103 45.3721 22.496V26.2092H36.9258V28.1066H56.1383V26.2092H47.647ZM40.2142 17.1914C40.2142 15.0695 42.7368 13.6618 46.5208 13.6618C50.3273 13.6618 52.8499 15.0695 52.8499 17.1914C52.8499 19.2928 50.3273 20.7006 46.5208 20.7006C42.7368 20.7006 40.2142 19.2928 40.2142 17.1914Z" fill="#434343"/>
<path d="M59.9654 17.2526H76.6553V15.6612H62.1952V11.5195H59.9654V17.2526ZM58.5914 20.2721H77.804V18.6807H58.5914V20.2721ZM59.9203 28.7391H76.813V27.2089H62.1051V25.9439H76.4751V21.7003H59.8753V23.2304H74.2903V24.4954H59.9203V28.7391Z" fill="#434343"/>
<path d="M96.0461 28.9431H98.2759V11.5195H96.0461V28.9431ZM86.8565 22.8632C90.3026 22.8632 92.8027 20.6189 92.8027 17.375C92.8027 14.131 90.3026 11.8868 86.8565 11.8868C83.3879 11.8868 80.9103 14.131 80.9103 17.375C80.9103 20.6189 83.3879 22.8632 86.8565 22.8632ZM86.8565 21.027C84.5591 21.027 83.0951 19.456 83.0951 17.375C83.0951 15.294 84.5591 13.7026 86.8565 13.7026C89.1314 13.7026 90.6179 15.294 90.6179 17.375C90.6179 19.456 89.1314 21.027 86.8565 21.027ZM80.2571 27.9026H87.9827C90.7531 27.9026 93.1406 27.5965 94.4244 27.0661V25.1891C93.118 25.7399 90.7531 26.0052 88.1178 26.0052H80.2571V27.9026Z" fill="#434343"/>
<path d="M59.9654 17.2526H76.6553V15.6612H62.1952V11.5195H59.9654V17.2526ZM58.5914 20.2721H77.804V18.6807H58.5914V20.2721ZM59.9203 28.7391H76.813V27.2089H62.1051V25.9439H76.4751V21.7003H59.8753V23.2304H74.2903V24.4954H59.9203V28.7391Z" fill="#434343"/>
<defs>
<clipPath id="clip0_1481_3304">
<rect width="30.6719" height="28.4585" fill="white" transform="translate(0 6)"/>
</clipPath>
</defs>
</svg>
